<?xml version="1.0" encoding="utf-8"?>
<!-- Generator: Adobe Illustrator 24.2.1, SVG Export Plug-In . SVG Version: 6.00 Build 0)  -->
<svg version="1.1" id="Layer_1" xmlns="http://www.w3.org/2000/svg" xmlns:xlink="http://www.w3.org/1999/xlink" x="0px" y="0px"
	 viewBox="0 0 16 16" style="enable-background:new 0 0 16 16;" xml:space="preserve">
<g id="Layer_6">
	<g>
		<g>
			<rect x="4.5" y="3.5" class="st0" width="11.5" height="1"/>
		</g>
		<g>
			<rect y="3.5" class="st0" width="1.5" height="1"/>
		</g>
		<g>
			<rect x="11.5" y="7.5" class="st0" width="4.5" height="1"/>
		</g>
		<g>
			<rect y="7.5" class="st0" width="8.5" height="1"/>
		</g>
		<g>
			<rect x="6.5" y="11.5" class="st0" width="9.5" height="1"/>
		</g>
		<g>
			<rect y="11.5" class="st0" width="3.5" height="1"/>
		</g>
		<g>
			<path class="st0" d="M10,10c-1.1,0-2-0.9-2-2s0.9-2,2-2c1.1,0,2,0.9,2,2S11.1,10,10,10z M10,7C9.45,7,9,7.45,9,8s0.45,1,1,1
				s1-0.45,1-1S10.55,7,10,7z"/>
		</g>
		<g>
			<path class="st0" d="M3,6C1.9,6,1,5.1,1,4s0.9-2,2-2s2,0.9,2,2S4.1,6,3,6z M3,3C2.45,3,2,3.45,2,4s0.45,1,1,1s1-0.45,1-1
				S3.55,3,3,3z"/>
		</g>
		<g>
			<path class="st0" d="M5,14c-1.1,0-2-0.9-2-2s0.9-2,2-2s2,0.9,2,2S6.1,14,5,14z M5,11c-0.55,0-1,0.45-1,1s0.45,1,1,1s1-0.45,1-1
				S5.55,11,5,11z"/>
		</g>
	</g>
</g>
<g id="Layer_3">
</g>
<g id="Layer_5" class="st1">
</g>
</svg>
