<?xml version="1.0" encoding="utf-8"?>
<!-- Generator: Adobe Illustrator 24.2.1, SVG Export Plug-In . SVG Version: 6.00 Build 0)  -->
<svg version="1.1" id="Layer_1" xmlns="http://www.w3.org/2000/svg" xmlns:xlink="http://www.w3.org/1999/xlink" x="0px" y="0px"
	 viewBox="0 0 16 16" style="enable-background:new 0 0 16 16;" xml:space="preserve">
<g id="Layer_6">
	<g>
		<rect x="14" y="6.5" class="st0" width="1" height="7.5"/>
	</g>
	<g>
		<path class="st0" d="M12.5,16h-10C1.67,16,1,15.33,1,14.5v-8C1,6.22,1.22,6,1.5,6S2,6.22,2,6.5v8C2,14.78,2.22,15,2.5,15h10
			c0.28,0,0.5,0.22,0.5,0.5S12.78,16,12.5,16z"/>
	</g>
	<g>
		<rect x="6" y="2" class="st0" width="4" height="1"/>
	</g>
	<g>
		<path class="st0" d="M15,7H1V3.5C1,2.67,1.67,2,2.5,2H5v1H2.5C2.22,3,2,3.22,2,3.5V6h12V3.5C14,3.22,13.78,3,13.5,3H11V2h2.5
			C14.33,2,15,2.67,15,3.5V7z"/>
	</g>
	<g>
		<path class="st0" d="M7,5H5.5C4.67,5,4,4.33,4,3.5v-2C4,0.67,4.67,0,5.5,0S7,0.67,7,1.5V2H6V1.5C6,1.22,5.78,1,5.5,1S5,1.22,5,1.5
			v2C5,3.78,5.22,4,5.5,4H7V5z"/>
	</g>
	<g>
		<path class="st0" d="M12,5h-1.5C9.67,5,9,4.33,9,3.5v-2C9,0.67,9.67,0,10.5,0S12,0.67,12,1.5V2h-1V1.5C11,1.22,10.78,1,10.5,1
			S10,1.22,10,1.5v2C10,3.78,10.22,4,10.5,4H12V5z"/>
	</g>
	<g>
		<path class="st0" d="M8,14c-1.65,0-3-1.35-3-3s1.35-3,3-3s3,1.35,3,3S9.65,14,8,14z M8,9c-1.1,0-2,0.9-2,2s0.9,2,2,2
			c1.1,0,2-0.9,2-2S9.1,9,8,9z"/>
	</g>
	<g>
		<path class="st0" d="M9.5,11.5H8c-0.28,0-0.5-0.22-0.5-0.5V9c0-0.28,0.22-0.5,0.5-0.5S8.5,8.72,8.5,9v1.5h1
			c0.28,0,0.5,0.22,0.5,0.5S9.78,11.5,9.5,11.5z"/>
	</g>
</g>
<g id="Layer_3">
</g>
<g id="Layer_5" class="st1">
</g>
</svg>
