<?xml version="1.0" encoding="utf-8"?>
<!-- Generator: Adobe Illustrator 24.2.1, SVG Export Plug-In . SVG Version: 6.00 Build 0)  -->
<svg version="1.1" id="Layer_1" xmlns="http://www.w3.org/2000/svg" xmlns:xlink="http://www.w3.org/1999/xlink" x="0px" y="0px"
	 viewBox="0 0 16 16" style="enable-background:new 0 0 16 16;" xml:space="preserve">
<g id="Layer_6">
	<g>
		<g>
			<path class="st0" d="M2.75,10.45c-0.08,0-0.16-0.02-0.23-0.06c-0.17-0.09-0.27-0.26-0.27-0.44V8.31h-1.5
				c-0.28,0-0.5-0.22-0.5-0.5V3.06c0-0.83,0.67-1.5,1.5-1.5h7.5c0.28,0,0.5,0.22,0.5,0.5v5.75c0,0.28-0.22,0.5-0.5,0.5H5.91
				l-2.87,2.05C2.95,10.42,2.85,10.45,2.75,10.45z M1.25,7.31h1.5c0.28,0,0.5,0.22,0.5,0.5v1.17L5.46,7.4
				c0.08-0.06,0.19-0.09,0.29-0.09h3V2.56h-7c-0.28,0-0.5,0.22-0.5,0.5V7.31z"/>
		</g>
		<g>
			<path class="st0" d="M8.75,14.44c-0.08,0-0.16-0.02-0.23-0.06c-0.17-0.09-0.27-0.26-0.27-0.44v-1.63h-1.5
				c-0.28,0-0.5-0.22-0.5-0.5V9.49h1v1.82h1.5c0.28,0,0.5,0.22,0.5,0.5v1.16l2.21-1.57c0.08-0.06,0.19-0.09,0.29-0.09h3V6.56h-4.02
				v-1h4.52c0.28,0,0.5,0.22,0.5,0.5v5.75c0,0.28-0.22,0.5-0.5,0.5h-3.34l-2.87,2.04C8.95,14.41,8.85,14.44,8.75,14.44z"/>
		</g>
		<g>
			<g>
				<rect x="2.25" y="3.44" class="st0" width="5" height="1"/>
			</g>
			<g>
				<rect x="2.75" y="5.44" class="st0" width="5" height="1"/>
			</g>
		</g>
		<g>
			<g>
				<rect x="10.25" y="7.44" class="st0" width="3" height="1"/>
			</g>
			<g>
				<rect x="10.75" y="9.44" class="st0" width="3" height="1"/>
			</g>
		</g>
	</g>
</g>
<g id="Layer_3">
</g>
<g id="Layer_5" class="st1">
</g>
</svg>
