<?xml version="1.0" encoding="utf-8"?>
<!-- Generator: Adobe Illustrator 24.2.0, SVG Export Plug-In . SVG Version: 6.00 Build 0)  -->
<svg version="1.1" id="Layer_2" xmlns="http://www.w3.org/2000/svg" xmlns:xlink="http://www.w3.org/1999/xlink" x="0px" y="0px"
	 viewBox="0 0 16 16" style="enable-background:new 0 0 16 16;" xml:space="preserve">
<g>
	<rect x="13" y="3.5" class="st0" width="1" height="8"/>
	<path class="st0" d="M14.5,12H10V3h4.5C15.33,3,16,3.67,16,4.5v6C16,11.33,15.33,12,14.5,12z M11,11h3.5c0.28,0,0.5-0.22,0.5-0.5
		v-6C15,4.22,14.78,4,14.5,4H11V11z"/>
	<path class="st0" d="M9.5,15h-8C0.67,15,0,14.33,0,13.5v-11C0,1.67,0.67,1,1.5,1h8C10.33,1,11,1.67,11,2.5v11
		C11,14.33,10.33,15,9.5,15z M1.5,2C1.22,2,1,2.22,1,2.5v11C1,13.78,1.22,14,1.5,14h8c0.28,0,0.5-0.22,0.5-0.5v-11
		C10,2.22,9.78,2,9.5,2H1.5z"/>
	<path class="st0" d="M8,7H3C2.72,7,2.5,6.78,2.5,6.5v-3C2.5,3.22,2.72,3,3,3h5c0.28,0,0.5,0.22,0.5,0.5v3C8.5,6.78,8.28,7,8,7z
		 M3.5,6h4V4h-4V6z"/>
	<rect x="5" y="8" class="st0" width="1" height="1"/>
	<rect x="3" y="8" class="st0" width="1" height="1"/>
	<rect x="7" y="8" class="st0" width="1" height="1"/>
	<rect x="5" y="10" class="st0" width="1" height="1"/>
	<rect x="3" y="10" class="st0" width="1" height="1"/>
	<rect x="7" y="10" class="st0" width="1" height="1"/>
	<rect x="5" y="12" class="st0" width="1" height="1"/>
	<rect x="3" y="12" class="st0" width="1" height="1"/>
	<rect x="7" y="12" class="st0" width="1" height="1"/>
</g>
</svg>
