<?xml version="1.0" encoding="utf-8"?>
<!-- Generator: Adobe Illustrator 24.2.0, SVG Export Plug-In . SVG Version: 6.00 Build 0)  -->
<svg version="1.1" id="Layer_2" xmlns="http://www.w3.org/2000/svg" xmlns:xlink="http://www.w3.org/1999/xlink" x="0px" y="0px"
	 viewBox="0 0 16 16" style="enable-background:new 0 0 16 16;" xml:space="preserve">
<g>
	<path class="st0" d="M9.84,13H8.5C8.22,13,8,12.78,8,12.5S8.22,12,8.5,12h1.34c0.28,0,0.5-0.22,0.5-0.5S10.12,11,9.84,11h-0.7
		c-0.83,0-1.5-0.67-1.5-1.5S8.32,8,9.14,8h1.36C10.78,8,11,8.22,11,8.5S10.78,9,10.5,9H9.14c-0.28,0-0.5,0.22-0.5,0.5
		S8.87,10,9.14,10h0.7c0.83,0,1.5,0.67,1.5,1.5S10.67,13,9.84,13z"/>
	<path class="st0" d="M9.5,9C9.22,9,9,8.78,9,8.5v-1C9,7.22,9.22,7,9.5,7S10,7.22,10,7.5v1C10,8.78,9.78,9,9.5,9z"/>
	<path class="st0" d="M9.5,14C9.22,14,9,13.78,9,13.5v-1C9,12.22,9.22,12,9.5,12s0.5,0.22,0.5,0.5v1C10,13.78,9.78,14,9.5,14z"/>
</g>
<path class="st0" d="M12.5,16h-8C3.12,16,2,14.88,2,13.5V0h11v13.5c0,0.28-0.22,0.5-0.5,0.5S12,13.78,12,13.5V1H3v12.5
	C3,14.33,3.67,15,4.5,15h8c0.28,0,0.5,0.22,0.5,0.5S12.78,16,12.5,16z"/>
<path class="st0" d="M12.5,16h-1v-1h1c0.83,0,1.5-0.67,1.5-1.5V10h-1.5V9H15v4.5C15,14.88,13.88,16,12.5,16z"/>
<path class="st0" d="M10.5,4h-6C4.22,4,4,3.78,4,3.5S4.22,3,4.5,3h6C10.78,3,11,3.22,11,3.5S10.78,4,10.5,4z"/>
<path class="st0" d="M10.5,6h-6C4.22,6,4,5.78,4,5.5S4.22,5,4.5,5h6C10.78,5,11,5.22,11,5.5S10.78,6,10.5,6z"/>
<path class="st0" d="M6.5,8h-2C4.22,8,4,7.78,4,7.5S4.22,7,4.5,7h2C6.78,7,7,7.22,7,7.5S6.78,8,6.5,8z"/>
<path class="st0" d="M6.5,10h-2C4.22,10,4,9.78,4,9.5S4.22,9,4.5,9h2C6.78,9,7,9.22,7,9.5S6.78,10,6.5,10z"/>
</svg>
