<?xml version="1.0" encoding="utf-8"?>
<!-- Generator: Adobe Illustrator 24.2.0, SVG Export Plug-In . SVG Version: 6.00 Build 0)  -->
<svg version="1.1" id="Layer_2" xmlns="http://www.w3.org/2000/svg" xmlns:xlink="http://www.w3.org/1999/xlink" x="0px" y="0px"
	 viewBox="0 0 16 16" style="enable-background:new 0 0 16 16;" xml:space="preserve">
<g>
	<path class="st0" d="M13.92,14.5H2.08c-0.6,0-1.13-0.31-1.42-0.83c-0.29-0.52-0.28-1.14,0.03-1.65L6.6,2.28
		C6.9,1.79,7.42,1.5,8,1.5s1.1,0.29,1.4,0.78l5.92,9.73c0.31,0.51,0.32,1.13,0.03,1.65C15.05,14.19,14.52,14.5,13.92,14.5z M8,2.5
		c-0.23,0-0.42,0.11-0.54,0.3l-5.92,9.73c-0.12,0.2-0.13,0.44-0.01,0.64c0.11,0.2,0.32,0.32,0.55,0.32h11.85
		c0.23,0,0.44-0.12,0.55-0.32s0.11-0.44-0.01-0.64L8.54,2.8C8.42,2.61,8.23,2.5,8,2.5z"/>
	<rect x="7.46" y="5" class="st0" width="1.09" height="4.5"/>
	<circle class="st0" cx="8" cy="11.25" r="0.75"/>
</g>
</svg>
