<?xml version="1.0" encoding="UTF-8"?>
<!-- Creator: CorelDRAW X7 -->
<svg xmlns="http://www.w3.org/2000/svg" xml:space="preserve" version="1.1" style="shape-rendering:geometricPrecision; text-rendering:geometricPrecision; image-rendering:optimizeQuality; fill-rule:evenodd; clip-rule:evenodd"
viewBox="0 0 21908 19169"
 xmlns:xlink="http://www.w3.org/1999/xlink">
 <defs>
 </defs>
 <g id="Camada_x0020_1">
  <g id="_2254526115200">
   <g id="Layer_2">
   </g>
   <g id="Layer_7">
    <path class="fil0" d="M21908 19169l-21908 0 0 -3423c0,-383 301,-684 685,-684 383,0 684,301 684,684l0 2054 19170 0 0 -2054c0,-383 301,-684 684,-684 384,0 685,301 685,684l0 3423z"/>
    <path class="fil0" d="M11639 19169l-1370 0 0 -15746c0,-1889 1534,-3423 3423,-3423l8216 0 0 17116 -8216 0c-1136,0 -2053,917 -2053,2053zm2053 -17800c-1136,0 -2053,918 -2053,2054l0 13008c575,-425 1287,-685 2053,-685l6847 0 0 -14377 -6847 0z"/>
    <path class="fil0" d="M11639 19169l-1370 0c0,-1136 -917,-2053 -2054,-2053l-8215 0 0 -17116 8215 0c1890,0 3424,1534 3424,3423l0 15746zm-10270 -3423l6846 0c767,0 1479,261 2054,685l0 -13008c0,-1136 -917,-2054 -2054,-2054l-6846 0 0 14377z"/>
    <rect class="fil0" x="2738" y="2738" width="5477" height="6846"/>
    <rect class="fil0" x="13692" y="10954" width="5477" height="2738"/>
    <rect class="fil0" x="2738" y="12323" width="5477" height="1369"/>
    <rect class="fil0" x="13692" y="2738" width="5477" height="1369"/>
    <rect class="fil0" x="13692" y="5477" width="4108" height="1369"/>
    <rect class="fil0" x="13692" y="8215" width="5477" height="1369"/>
   </g>
  </g>
 </g>
</svg>
