<?xml version="1.0" encoding="utf-8"?>
<!-- Generator: Adobe Illustrator 24.2.3, SVG Export Plug-In . SVG Version: 6.00 Build 0)  -->
<svg version="1.1" id="Layer_1" xmlns="http://www.w3.org/2000/svg" xmlns:xlink="http://www.w3.org/1999/xlink" x="0px" y="0px"
	 viewBox="0 0 16 16" style="enable-background:new 0 0 16 16;" xml:space="preserve">
<g id="Layer_6">
	<g>
		<g>
			<path class="st0" d="M13.15,2.85L14.8,4.5l-1.65,1.65l0.71,0.71l2-2c0.2-0.2,0.2-0.51,0-0.71l-2-2L13.15,2.85z"/>
		</g>
		<g>
			<path class="st0" d="M13.15,9.85l1.65,1.65l-1.65,1.65l0.71,0.71l2-2c0.2-0.2,0.2-0.51,0-0.71l-2-2L13.15,9.85z"/>
		</g>
		<path class="st0" d="M11.4,5h3.93V4H11.4c-0.35,0-0.69,0.12-0.97,0.34L8.22,7c-0.1,0.12-0.29,0.12-0.39,0l-2.2-2.65
			C5.36,4.12,5.02,4,4.67,4H0v1h4.67C4.79,5,4.9,5.04,4.99,5.12l2.26,2.71c0.08,0.09,0.08,0.23,0,0.32l-2.27,2.72
			C4.9,10.96,4.79,11,4.67,11H0v1h4.67c0.35,0,0.7-0.12,0.97-0.34l2.21-2.65c0.1-0.12,0.29-0.12,0.39,0l2.21,2.64
			C10.71,11.88,11.05,12,11.4,12h3.93v-1H11.4c-0.12,0-0.23-0.04-0.33-0.11L8.81,8.17c-0.08-0.09-0.08-0.23,0-0.32l2.27-2.73
			C11.17,5.04,11.28,5,11.4,5z"/>
	</g>
</g>
<g id="Layer_3">
</g>
<g id="Layer_5" class="st1">
</g>
</svg>
