<?xml version="1.0" encoding="utf-8"?>
<!-- Generator: Adobe Illustrator 24.2.0, SVG Export Plug-In . SVG Version: 6.00 Build 0)  -->
<svg version="1.1" id="Layer_2" xmlns="http://www.w3.org/2000/svg" xmlns:xlink="http://www.w3.org/1999/xlink" x="0px" y="0px"
	 viewBox="0 0 16 16" style="enable-background:new 0 0 16 16;" xml:space="preserve">
<g>
	<path class="st0" d="M8.34,13.5H7c-0.28,0-0.5-0.22-0.5-0.5s0.22-0.5,0.5-0.5h1.34c0.28,0,0.5-0.22,0.5-0.5s-0.22-0.5-0.5-0.5h-0.7
		c-0.83,0-1.5-0.67-1.5-1.5s0.67-1.5,1.5-1.5H9c0.28,0,0.5,0.22,0.5,0.5S9.27,9.5,9,9.5H7.64c-0.28,0-0.5,0.22-0.5,0.5
		s0.22,0.5,0.5,0.5h0.7c0.83,0,1.5,0.67,1.5,1.5S9.17,13.5,8.34,13.5z"/>
	<path class="st0" d="M8,9.5C7.72,9.5,7.5,9.28,7.5,9V8c0-0.28,0.22-0.5,0.5-0.5S8.5,7.72,8.5,8v1C8.5,9.28,8.27,9.5,8,9.5z"/>
	<path class="st0" d="M8,14.5c-0.28,0-0.5-0.22-0.5-0.5v-1c0-0.28,0.22-0.5,0.5-0.5s0.5,0.22,0.5,0.5v1C8.5,14.28,8.27,14.5,8,14.5z
		"/>
</g>
<g>
	<path class="st0" d="M3,11.5c-0.96,0-1.75-0.79-1.75-1.75S2.04,8,3,8s1.75,0.79,1.75,1.75S3.96,11.5,3,11.5z M3,9
		C2.59,9,2.25,9.34,2.25,9.75S2.59,10.5,3,10.5s0.75-0.34,0.75-0.75S3.41,9,3,9z"/>
	<path class="st0" d="M6,16H5v-1c0-0.83-0.67-1.5-1.5-1.5h-1C1.67,13.5,1,14.17,1,15v1H0v-1c0-1.38,1.12-2.5,2.5-2.5h1
		C4.88,12.5,6,13.62,6,15V16z"/>
</g>
<g>
	<path class="st0" d="M13,11.5c-0.96,0-1.75-0.79-1.75-1.75S12.04,8,13,8s1.75,0.79,1.75,1.75S13.96,11.5,13,11.5z M13,9
		c-0.41,0-0.75,0.34-0.75,0.75S12.59,10.5,13,10.5s0.75-0.34,0.75-0.75S13.41,9,13,9z"/>
	<path class="st0" d="M16,16h-1v-1c0-0.83-0.67-1.5-1.5-1.5h-1c-0.83,0-1.5,0.67-1.5,1.5v1h-1v-1c0-1.38,1.12-2.5,2.5-2.5h1
		c1.38,0,2.5,1.12,2.5,2.5V16z"/>
</g>
<g>
	<path class="st0" d="M8,3.5c-0.96,0-1.75-0.79-1.75-1.75S7.04,0,8,0s1.75,0.79,1.75,1.75S8.96,3.5,8,3.5z M8,1
		C7.59,1,7.25,1.34,7.25,1.75S7.59,2.5,8,2.5s0.75-0.34,0.75-0.75S8.41,1,8,1z"/>
	<path class="st0" d="M11,8h-1V7c0-0.83-0.67-1.5-1.5-1.5h-1C6.67,5.5,6,6.17,6,7v1H5V7c0-1.38,1.12-2.5,2.5-2.5h1
		C9.88,4.5,11,5.62,11,7V8z"/>
</g>
</svg>
