<?xml version="1.0" encoding="utf-8"?>
<!-- Generator: Adobe Illustrator 24.2.0, SVG Export Plug-In . SVG Version: 6.00 Build 0)  -->
<svg version="1.1" id="Layer_2" xmlns="http://www.w3.org/2000/svg" xmlns:xlink="http://www.w3.org/1999/xlink" x="0px" y="0px"
	 viewBox="0 0 16 16" style="enable-background:new 0 0 16 16;" xml:space="preserve">
<g>
	<polygon class="st0" points="10,16 9,16 9,3 2,3 2,16 1,16 1,2 10,2 	"/>
	<rect x="3" y="1" class="st0" width="5" height="1"/>
	<rect x="3" y="4" class="st0" width="1" height="1"/>
	<rect x="5" y="4" class="st0" width="1" height="1"/>
	<rect x="7" y="4" class="st0" width="1" height="1"/>
	<rect x="3" y="6" class="st0" width="1" height="1"/>
	<rect x="5" y="6" class="st0" width="1" height="1"/>
	<rect x="7" y="6" class="st0" width="1" height="1"/>
	<rect x="3" y="8" class="st0" width="1" height="1"/>
	<rect x="5" y="8" class="st0" width="1" height="1"/>
	<rect x="7" y="8" class="st0" width="1" height="1"/>
	<rect x="3" y="10" class="st0" width="1" height="1"/>
	<rect x="5" y="10" class="st0" width="1" height="1"/>
	<rect x="7" y="10" class="st0" width="1" height="1"/>
	<rect x="5" class="st0" width="1" height="2"/>
	<polygon class="st0" points="7,16 6,16 6,13 5,13 5,16 4,16 4,12 7,12 	"/>
	<polygon class="st0" points="15,16 14,16 14,5 9.5,5 9.5,4 15,4 	"/>
	<rect x="11" y="3" class="st0" width="2" height="1"/>
	<rect x="11" y="6" class="st0" width="3" height="1"/>
	<rect x="11" y="8" class="st0" width="3" height="1"/>
	<rect x="11" y="10" class="st0" width="3" height="1"/>
	<rect x="11" y="12" class="st0" width="3" height="1"/>
</g>
</svg>
