<?xml version="1.0" encoding="utf-8"?>
<!-- Generator: Adobe Illustrator 24.2.1, SVG Export Plug-In . SVG Version: 6.00 Build 0)  -->
<svg version="1.1" id="Layer_1" xmlns="http://www.w3.org/2000/svg" xmlns:xlink="http://www.w3.org/1999/xlink" x="0px" y="0px"
	 viewBox="0 0 16 16" style="enable-background:new 0 0 16 16;" xml:space="preserve">
<g id="Layer_6">
	<g>
		<path class="st0" d="M2.86,13.63c-0.16,0-0.31-0.06-0.43-0.18c-0.19-0.19-0.23-0.47-0.11-0.71l1.26-2.53
			c0.02-0.05,0.06-0.09,0.09-0.13l9.49-9.49c0.19-0.19,0.52-0.19,0.71,0l1.42,1.42c0.2,0.2,0.2,0.51,0,0.71l-9.49,9.49
			c-0.04,0.04-0.08,0.07-0.13,0.09l-2.53,1.26C3.04,13.61,2.95,13.63,2.86,13.63z M4.43,10.74l-0.71,1.42l1.42-0.71l9.08-9.08
			l-0.71-0.71L4.43,10.74z"/>
	</g>
	<g>
		<path class="st0" d="M5.61,12.18c-0.13,0-0.27-0.05-0.36-0.16l-1.11-1.18c-0.19-0.2-0.18-0.52,0.02-0.71
			c0.2-0.19,0.52-0.18,0.71,0.02l1.11,1.18c0.19,0.2,0.18,0.52-0.02,0.71C5.86,12.13,5.73,12.18,5.61,12.18z"/>
	</g>
	<g>
		<path class="st0" d="M13.5,16h-12C0.67,16,0,15.33,0,14.5v-11C0,2.67,0.67,2,1.5,2h6C7.78,2,8,2.22,8,2.5S7.78,3,7.5,3h-6
			C1.22,3,1,3.22,1,3.5v11C1,14.78,1.22,15,1.5,15h12c0.28,0,0.5-0.22,0.5-0.5V9c0-0.28,0.22-0.5,0.5-0.5S15,8.72,15,9v5.5
			C15,15.33,14.33,16,13.5,16z"/>
	</g>
	<g>
		<path class="st0" d="M12.5,5c-0.13,0-0.26-0.05-0.35-0.15l-1-1c-0.2-0.2-0.2-0.51,0-0.71s0.51-0.2,0.71,0l1,1
			c0.2,0.2,0.2,0.51,0,0.71C12.76,4.95,12.63,5,12.5,5z"/>
	</g>
</g>
<g id="Layer_3">
</g>
<g id="Layer_5" class="st1">
</g>
</svg>
