<?xml version="1.0" encoding="utf-8"?>
<!-- Generator: Adobe Illustrator 24.1.2, SVG Export Plug-In . SVG Version: 6.00 Build 0)  -->
<svg version="1.1" id="Camada_1" xmlns="http://www.w3.org/2000/svg" xmlns:xlink="http://www.w3.org/1999/xlink" x="0px" y="0px"
	 viewBox="0 0 511 511" style="enable-background:new 0 0 511 511;" xml:space="preserve">
<g>
	<path d="M329.3,3c-2.3-2.5-5.6-3.9-8.9-3.9H121C84.3-1,53.9,29.2,53.9,66v377c0,36.8,30.4,67,67.1,67h270.6
		c36.8,0,67.1-30.2,67.1-67V143.7c0-3.2-1.5-6.3-3.6-8.6L329.3,3z M332.8,42.6l84.3,88.5h-54.8c-16.3,0-29.5-13.1-29.5-29.4V42.6z
		 M391.6,485.3H121c-23.1,0-42.5-19.1-42.5-42.3V66c0-23.1,19.3-42.3,42.5-42.3h187.1v78c0,30,24.2,54.1,54.2,54.1H434V443
		C434.1,466.2,414.8,485.3,391.6,485.3z"/>
	<path d="M247.3,355.8c2.3,2.5,5.6,3.9,9,3.9c3.5,0,6.7-1.5,9-3.9l72.3-77.6c4.7-4.9,4.3-12.8-0.6-17.4c-4.9-4.7-12.8-4.3-17.4,0.6
		l-51,54.7V181.3c0-6.8-5.6-12.3-12.3-12.3c-6.8,0-12.3,5.6-12.3,12.3v134.8l-50.9-54.7c-4.7-4.9-12.5-5.3-17.4-0.6
		c-4.9,4.7-5.3,12.5-0.6,17.4L247.3,355.8z"/>
</g>
</svg>
