<?xml version="1.0" encoding="utf-8"?>
<!-- Generator: Adobe Illustrator 24.2.3, SVG Export Plug-In . SVG Version: 6.00 Build 0)  -->
<svg version="1.1" xmlns="http://www.w3.org/2000/svg" xmlns:xlink="http://www.w3.org/1999/xlink" x="0px" y="0px"
	 viewBox="0 0 16 16" style="enable-background:new 0 0 16 16;" xml:space="preserve">

<g id="Layer_6">
	<path style="fill:none;stroke:#8B6FAF;stroke-linejoin:round;stroke-miterlimit:10;" class="st10" d="M6.48,14c0,0-0.03,0-0.03-0.02V9.04c0-0.65-0.28-1.27-0.76-1.71l-2.2-1.97C2.54,4.51,2,3.3,2,2.02
		C2,2.01,2.01,2,2.02,2H13.9c0.01,0,0.02,0.01,0.02,0.02c0,1.27-0.54,2.49-1.49,3.33l-2.2,1.97C9.75,7.76,9.47,8.38,9.47,9.04v2.95
		c0,0.01,0,0.02-0.01,0.02L6.49,14C6.48,14,6.48,14,6.48,14z"/>
</g>
<g id="Layer_3">
</g>
<g id="Layer_5" class="st29">
</g>
</svg>
