<?xml version="1.0" encoding="utf-8"?>
<!-- Generator: Adobe Illustrator 24.2.0, SVG Export Plug-In . SVG Version: 6.00 Build 0)  -->
<svg version="1.1" id="Layer_2" xmlns="http://www.w3.org/2000/svg" xmlns:xlink="http://www.w3.org/1999/xlink" x="0px" y="0px"
	 viewBox="0 0 16 16" style="enable-background:new 0 0 16 16;" xml:space="preserve">
<g>
	<path class="st0" d="M8,16c-4.41,0-8-3.59-8-8s3.59-8,8-8s8,3.59,8,8S12.41,16,8,16z M8,1C4.14,1,1,4.14,1,8s3.14,7,7,7s7-3.14,7-7
		S11.86,1,8,1z"/>
	<path class="st0" d="M8.51,11.5H6.5C6.22,11.5,6,11.28,6,11s0.22-0.5,0.5-0.5h2.01c0.55,0,1-0.45,1-1s-0.45-1-1-1H7.46
		c-1.1,0-2-0.9-2-2s0.9-2,2-2H9.5C9.78,4.5,10,4.72,10,5S9.78,5.5,9.5,5.5H7.46c-0.55,0-1,0.45-1,1s0.45,1,1,1h1.05c1.1,0,2,0.9,2,2
		S9.62,11.5,8.51,11.5z"/>
	<path class="st0" d="M8,5.5C7.72,5.5,7.5,5.28,7.5,5V3.5C7.5,3.22,7.72,3,8,3s0.5,0.22,0.5,0.5V5C8.5,5.28,8.28,5.5,8,5.5z"/>
	<path class="st0" d="M8,13c-0.28,0-0.5-0.22-0.5-0.5V11c0-0.28,0.22-0.5,0.5-0.5s0.5,0.22,0.5,0.5v1.5C8.5,12.78,8.28,13,8,13z"/>
</g>
</svg>
