<?xml version="1.0" encoding="utf-8"?>
<!-- Generator: Adobe Illustrator 24.2.1, SVG Export Plug-In . SVG Version: 6.00 Build 0)  -->
<svg version="1.1" id="Layer_1" xmlns="http://www.w3.org/2000/svg" xmlns:xlink="http://www.w3.org/1999/xlink" x="0px" y="0px"
	 viewBox="0 0 16 16" style="enable-background:new 0 0 16 16;" xml:space="preserve">
<g id="Layer_6">
	<g>
		<g>
			<path class="st0" d="M15.4,14.25h-14L0.16,3.75h5l0.17,1.27c0.03,0.25,0.24,0.43,0.49,0.43h8.57L15.4,14.25z M2.28,13.25h12
				l-0.78-6.8H5.82c-0.76,0-1.4-0.56-1.49-1.31L4.28,4.75h-3L2.28,13.25z"/>
		</g>
		<g>
			<path class="st0" d="M15.78,14.25h-1v-10h-7.5c-0.83,0-1.5-0.67-1.5-1.5v-0.5h-3v2h-1v-3h5v1.5c0,0.28,0.22,0.5,0.5,0.5h8.5
				V14.25z"/>
		</g>
	</g>
</g>
<g id="Layer_3">
</g>
<g id="Layer_5" class="st1">
</g>
</svg>
