<?xml version="1.0" encoding="utf-8"?>
<!-- Generator: Adobe Illustrator 24.1.2, SVG Export Plug-In . SVG Version: 6.00 Build 0)  -->
<svg version="1.1" id="Camada_1" xmlns="http://www.w3.org/2000/svg" xmlns:xlink="http://www.w3.org/1999/xlink" x="0px" y="0px"
	 viewBox="0 0 16 16" style="enable-background:new 0 0 16 16;" xml:space="preserve">
<g id="Layer_6">
	<g>
		<path class="st0" d="M9.1,14.8c-1.5,0-2.9-0.5-4.1-1.4c-0.4-0.3-0.8-0.6-1.1-1l0.8-0.6c0.3,0.3,0.6,0.6,0.9,0.9
			c1,0.8,2.2,1.2,3.5,1.2c3.2,0,5.8-2.6,5.8-5.8s-2.6-5.8-5.8-5.8S3.2,4.8,3.2,8v1.1h-1V8c0-3.8,3.1-6.8,6.8-6.8s6.8,3.1,6.8,6.8
			C15.9,11.8,12.8,14.8,9.1,14.8z"/>
	</g>
	<g>
		<path class="st0" d="M2.7,10.5c0.2,0,0.3-0.1,0.4-0.2L5.4,8L4.6,7.2L2.7,9.1L0.8,7.2L0,8l2.3,2.3C2.4,10.4,2.6,10.5,2.7,10.5z"/>
	</g>
</g>
<g id="Layer_3">
</g>
<g id="Layer_5" class="st1">
</g>
<g>
	<g>
		<path class="st0" d="M9.1,8.1L11,9.4c0.2,0.2,0.3,0.4,0.2,0.7c-0.1,0.1-0.3,0.2-0.4,0.2c-0.1,0-0.4-0.1-0.5-0.2L9.1,9.3"/>
	</g>
	<g>
		<path class="st0" d="M10.6,9.8c-0.1,0.1-0.3,0.1-0.4,0.1c-0.1,0-0.4-0.2-0.5-0.2L8.4,8.9C8.3,8.8,8.2,8.6,8.2,8.5V5
			c0-0.3,0.2-0.5,0.5-0.5S9.2,4.7,9.2,5v3.2l1.4,1C10.8,9.4,10.7,9.7,10.6,9.8z"/>
	</g>
</g>
</svg>
