<?xml version="1.0" encoding="utf-8"?>
<!-- Generator: Adobe Illustrator 24.2.0, SVG Export Plug-In . SVG Version: 6.00 Build 0)  -->
<svg version="1.1" id="Layer_2" xmlns="http://www.w3.org/2000/svg" xmlns:xlink="http://www.w3.org/1999/xlink" x="0px" y="0px"
	 viewBox="0 0 16 16" style="enable-background:new 0 0 16 16;" xml:space="preserve">
<g>
	<path class="st0" d="M12.5,16H10v-1h2.5c0.28,0,0.5-0.22,0.5-0.5V6h1v8.5C14,15.33,13.33,16,12.5,16z"/>
	<path class="st0" d="M6,16H3.5C2.67,16,2,15.33,2,14.5V6h1v8.5C3,14.78,3.22,15,3.5,15H6V16z"/>
	<polygon class="st0" points="10.5,16 9.5,16 9.5,10 6.5,10 6.5,16 5.5,16 5.5,9 10.5,9 	"/>
	<path class="st0" d="M15.5,8.5c-0.13,0-0.26-0.05-0.35-0.15L8,1.21L0.85,8.35c-0.2,0.2-0.51,0.2-0.71,0s-0.2-0.51,0-0.71l7.5-7.5
		c0.2-0.2,0.51-0.2,0.71,0l7.5,7.5c0.2,0.2,0.2,0.51,0,0.71C15.76,8.45,15.63,8.5,15.5,8.5z"/>
</g>
</svg>
