<?xml version="1.0" encoding="utf-8"?>
<!-- Generator: Adobe Illustrator 24.1.2, SVG Export Plug-In . SVG Version: 6.00 Build 0)  -->
<svg version="1.1" id="Camada_1" xmlns="http://www.w3.org/2000/svg" xmlns:xlink="http://www.w3.org/1999/xlink" x="0px" y="0px"
	 viewBox="0 0 16 16" style="enable-background:new 0 0 16 16;" xml:space="preserve">
<path d="M8,14.4c-0.4,0-0.8-0.1-1.1-0.4L1.3,8.8C0.4,7.9,0,6.8,0,5.7c0-1.2,0.5-2.3,1.4-3C3,1.2,5.7,1.3,7.4,3l0.2,0.2
	c0.2,0.2,0.5,0.2,0.7,0L8.5,3c1.6-1.6,4.3-1.8,6-0.3l0,0c0.9,0.8,1.4,1.9,1.4,3c0,1.2-0.4,2.3-1.2,3.1L9.1,14
	C8.8,14.3,8.4,14.4,8,14.4z"/>
<g id="Layer_3">
</g>
</svg>
