<?xml version="1.0" encoding="utf-8"?>
<!-- Generator: Adobe Illustrator 24.2.1, SVG Export Plug-In . SVG Version: 6.00 Build 0)  -->
<svg version="1.1" xmlns="http://www.w3.org/2000/svg" xmlns:xlink="http://www.w3.org/1999/xlink" x="0px" y="0px"
	 viewBox="0 0 16 16" style="enable-background:new 0 0 16 16;" xml:space="preserve">
<g id="Layer_6">
	<g>
		<path class="st4" d="M8,16.08c-0.53,0-1-0.27-1.28-0.72c-0.77-1.58-1.98-4.06-2.24-4.51C3.09,9.85,2.2,8.3,2.03,6.59
			C2.03,6.58,2,6.18,2,6c0-3.31,2.69-6,6-6s6,2.69,6,6c0,0.18-0.03,0.58-0.03,0.58c-0.17,1.72-1.06,3.26-2.45,4.27
			c-0.26,0.45-1.47,2.93-2.22,4.47C9,15.81,8.53,16.08,8,16.08z M8,1C5.24,1,3,3.24,3,6c0,0.16,0.03,0.51,0.03,0.51
			c0.14,1.43,0.91,2.74,2.11,3.58c0.13,0.09,0.22,0.15,2.46,4.79c0.11,0.17,0.32,0.2,0.4,0.2s0.29-0.02,0.43-0.24
			c2.22-4.6,2.3-4.66,2.44-4.75c1.2-0.84,1.97-2.15,2.11-3.6l0,0c0,0,0.03-0.34,0.03-0.5C13,3.24,10.76,1,8,1z"/>
	</g>
	<g>
		<circle class="st4" cx="8" cy="6" r="3"/>
	</g>
</g>
<g id="Layer_3">
</g>
<g id="Layer_5" class="st27">
</g>
</svg>
