<?xml version="1.0" encoding="utf-8"?>
<!-- Generator: Adobe Illustrator 24.1.2, SVG Export Plug-In . SVG Version: 6.00 Build 0)  -->
<svg version="1.1" id="Layer_1" xmlns="http://www.w3.org/2000/svg" xmlns:xlink="http://www.w3.org/1999/xlink" x="0px" y="0px"
	 viewBox="0 0 16 16" style="enable-background:new 0 0 16 16;" xml:space="preserve">
<g id="Layer_6">
	<g>
		<g>
			<path class="st0" d="M8,7.3c-1,0-1.8-0.8-1.8-1.8S7,3.8,8,3.8s1.8,0.8,1.8,1.8S9,7.3,8,7.3z M8,4.8c-0.4,0-0.8,0.3-0.8,0.8
				S7.6,6.3,8,6.3s0.8-0.3,0.8-0.8S8.4,4.8,8,4.8z"/>
		</g>
		<g>
			<path class="st0" d="M11,11.8h-1v-1c0-0.8-0.7-1.5-1.5-1.5h-1C6.7,9.3,6,9.9,6,10.8v1H5v-1c0-1.4,1.1-2.5,2.5-2.5h1
				c1.4,0,2.5,1.1,2.5,2.5V11.8z"/>
		</g>
	</g>
	<g>
		<path class="st0" d="M8,15c-3.9,0-7-3.1-7-7s3.1-7,7-7s7,3.1,7,7S11.9,15,8,15z M8,2C4.7,2,2,4.7,2,8s2.7,6,6,6s6-2.7,6-6
			S11.3,2,8,2z"/>
	</g>
	<g>
		<path class="st0" d="M8,16.5c-0.3,0-0.5-0.2-0.5-0.5v-3c0-0.3,0.2-0.5,0.5-0.5c0.3,0,0.5,0.2,0.5,0.5v3C8.5,16.3,8.3,16.5,8,16.5z
			"/>
	</g>
	<g>
		<path class="st0" d="M8,3.5C7.7,3.5,7.5,3.3,7.5,3V0c0-0.3,0.2-0.5,0.5-0.5c0.3,0,0.5,0.2,0.5,0.5v3C8.5,3.3,8.3,3.5,8,3.5z"/>
	</g>
	<g>
		<path class="st0" d="M3,8.5H0c-0.3,0-0.5-0.2-0.5-0.5S-0.3,7.5,0,7.5h3c0.3,0,0.5,0.2,0.5,0.5C3.5,8.3,3.3,8.5,3,8.5z"/>
	</g>
	<g>
		<path class="st0" d="M16,8.5h-2.5C13.2,8.5,13,8.3,13,8s0.2-0.5,0.5-0.5H16c0.3,0,0.5,0.2,0.5,0.5C16.5,8.3,16.3,8.5,16,8.5z"/>
	</g>
</g>
<g id="Layer_3">
</g>
<g id="Layer_5" class="st1">
</g>
</svg>
