<?xml version="1.0" encoding="utf-8"?>
<!-- Generator: Adobe Illustrator 24.2.0, SVG Export Plug-In . SVG Version: 6.00 Build 0)  -->
<svg version="1.1" id="Layer_2" xmlns="http://www.w3.org/2000/svg" xmlns:xlink="http://www.w3.org/1999/xlink" x="0px" y="0px"
	 viewBox="0 0 16 16" style="enable-background:new 0 0 16 16;" xml:space="preserve">
<g>
	<rect x="8" y="2" class="st0" width="6" height="1"/>
	<rect x="8" y="7.5" class="st0" width="6" height="1"/>
	<rect x="8" y="13" class="st0" width="6" height="1"/>
	<path class="st0" d="M4.5,16C3.12,16,2,14.88,2,13.5S3.12,11,4.5,11S7,12.12,7,13.5S5.88,16,4.5,16z M4.5,12
		C3.67,12,3,12.67,3,13.5S3.67,15,4.5,15S6,14.33,6,13.5S5.33,12,4.5,12z"/>
	<path class="st0" d="M4.5,10.5C3.12,10.5,2,9.38,2,8s1.12-2.5,2.5-2.5S7,6.62,7,8S5.88,10.5,4.5,10.5z M4.5,6.5
		C3.67,6.5,3,7.17,3,8s0.67,1.5,1.5,1.5S6,8.83,6,8S5.33,6.5,4.5,6.5z"/>
	<path class="st0" d="M4.5,3.71L3.49,2.7c-0.2-0.2-0.2-0.51,0-0.71s0.51-0.2,0.71,0l0.3,0.3l2.15-2.15c0.2-0.2,0.51-0.2,0.71,0
		s0.2,0.51,0,0.71L4.5,3.71z"/>
</g>
<g>
	<path class="st0" d="M6.25,0.72C5.27-0.25,3.68-0.23,2.72,0.75S1.76,3.32,2.75,4.28s2.57,0.95,3.54-0.03l-0.71-0.7
		c-0.58,0.59-1.53,0.6-2.12,0.02s-0.6-1.53-0.02-2.12s1.53-0.6,2.12-0.02"/>
</g>
<circle class="st0" cx="5.93" cy="3.9" r="0.5"/>
</svg>
