<?xml version="1.0" encoding="utf-8"?>
<!-- Generator: Adobe Illustrator 24.1.2, SVG Export Plug-In . SVG Version: 6.00 Build 0)  -->
<svg version="1.1" id="Camada_1" xmlns="http://www.w3.org/2000/svg" xmlns:xlink="http://www.w3.org/1999/xlink" x="0px" y="0px"
	 viewBox="0 0 100 100" style="enable-background:new 0 0 100 100;" xml:space="preserve">
<g>
	<path class="st0" d="M78.3,60.9c-2.4,0-4.8,0-7.3,0c-2.9,0.1-5.4,1-7.6,2.9c-2.1,1.7-3.5,3.9-4.1,6.5c-0.6,2.7-0.5,5.4,0.8,8
		c1.1,2.3,1.8,4.6,1.5,7.1s-1.1,4.7-2.8,6.6c-1.5,1.7-3.3,2.8-5.5,3.4C51,96,48.6,96,46.2,95.9c-2.7-0.2-5.4-0.6-8.1-1.4
		c-2.6-0.8-5.2-1.8-7.6-3.1c-2.7-1.4-5.3-3-7.6-4.9c-2-1.7-4-3.4-5.8-5.3c-2.3-2.4-4.4-5.1-6-8c-1.2-2.2-2.4-4.5-3.4-6.8
		c-1.2-2.7-2.1-5.6-2.6-8.6c-0.3-1.5-0.5-3.1-0.6-4.6c-0.1-1.6-0.3-3.2-0.2-4.8c0-2.5,0.3-5,0.7-7.4c0.4-2.7,1.1-5.4,2-7.9
		c1.5-4,3.4-7.8,5.9-11.2c0.9-1.3,1.9-2.5,3-3.7c0.9-1,1.8-2,2.8-2.9c2.7-2.6,5.6-4.8,8.9-6.7c2.8-1.6,5.7-2.9,8.8-3.9
		c2.4-0.8,4.9-1.4,7.4-1.7c1.7-0.2,3.4-0.4,5-0.5c1.1-0.1,2.2-0.2,3.3-0.1c1.8,0.1,3.6,0.3,5.3,0.5c3.5,0.3,6.8,1.3,10,2.5
		c2.6,0.9,5,2,7.3,3.5c2.1,1.3,4.2,2.6,6.1,4.2s3.7,3.4,5.4,5.2c1.4,1.5,2.6,3.1,3.7,4.7c0.8,1.1,1.4,2.2,2.1,3.4
		c1.6,2.8,2.9,5.7,3.8,8.8c0.8,2.4,1.4,4.9,1.6,7.5c0.2,2.2,0.4,4.4,0.5,6.6c0.1,2.6-0.9,4.9-2.4,7c-1.7,2.3-4.1,3.8-6.9,4.4
		c-0.9,0.2-1.8,0.3-2.7,0.3C83.4,60.9,80.8,60.9,78.3,60.9z M78.4,55c0.9,0,1.9,0,2.8,0c2,0,3.9,0,5.9-0.1c2.3-0.2,4.5-2.3,4.8-4.7
		c0.2-1.3,0.1-2.7,0-4c-0.1-1.6-0.3-3.2-0.6-4.8c-0.5-3.1-1.5-6.1-2.8-9c-1.4-3-3-5.7-5-8.3c-1.5-1.9-3.2-3.8-5-5.4
		s-3.7-3.1-5.8-4.4c-2.5-1.6-5.1-2.9-7.9-3.8c-2-0.7-4.1-1.2-6.2-1.6c-2-0.4-4.1-0.6-6.1-0.7c-2.4-0.1-4.8,0-7.2,0.5
		c-2,0.4-3.9,0.7-5.8,1.2c-3.4,0.9-6.7,2.3-9.7,4.3c-2.1,1.4-4.1,2.8-6,4.5c-2.2,1.9-4.2,4.1-5.9,6.6c-1.8,2.5-3.3,5.2-4.5,8
		c-1,2.4-1.9,5-2.2,7.6c-0.3,2.3-0.7,4.6-0.8,7c-0.1,2.1,0.1,4.2,0.4,6.3c0.2,1.8,0.5,3.5,1,5.2c1.1,4.2,2.9,8.2,5.3,11.9
		c1.1,1.6,2.3,3.2,3.5,4.7c0.8,1,1.7,2,2.6,2.9s1.8,1.7,2.8,2.4c1.8,1.3,3.5,2.7,5.4,3.8c2.6,1.6,5.4,2.9,8.4,3.7
		c1.8,0.5,3.7,0.9,5.6,1.2c1.5,0.2,3.1,0.2,4.7,0.1c0.8,0,1.6-0.1,2.4-0.3c3-0.8,4.1-3.9,3.6-6.5c-0.2-1.1-0.7-2.1-1.1-3.1
		c-1.2-3-1.7-6-1.2-9.2c0.3-2.3,1-4.5,2.1-6.5c1.4-2.6,3.4-4.7,5.9-6.4c3-2,6.4-3,10-3.1C73.6,55,76,55,78.4,55z"/>
	<path class="st0" d="M35,34.5c0.1,2.2-1.9,4.5-4.5,4.4c-2.3-0.1-4.2-1.9-4.2-4.3c0-2.4,1.8-4.4,4.4-4.4C33.1,30.1,35,32.1,35,34.5z
		"/>
	<path class="st0" d="M29.1,55c0.1,2.4-2,4.4-4.4,4.4c-2.2,0-4.5-1.8-4.3-4.7c0.1-2.4,2.1-4.1,4.4-4.1C27.1,50.6,29.2,52.5,29.1,55z
		"/>
	<path class="st0" d="M71.6,35.9c-2.1,0.3-4.5-2-4.4-4.5c0.1-2.2,2-4.2,4.3-4.3c2.4,0,4.4,1.8,4.4,4.4C76,33.9,74,36.1,71.6,35.9z"
		/>
	<path class="st0" d="M48.2,27.1c-2.4,0.1-4.4-1.9-4.4-4.3c0-2.3,1.8-4.4,4.5-4.4c2.4,0.1,4.2,2,4.3,4.4
		C52.6,25.1,50.6,27.3,48.2,27.1z"/>
</g>
</svg>
