<?xml version="1.0" encoding="utf-8"?>
<!-- Generator: Adobe Illustrator 24.1.2, SVG Export Plug-In . SVG Version: 6.00 Build 0)  -->
<svg version="1.1" id="Layer_1" xmlns="http://www.w3.org/2000/svg" xmlns:xlink="http://www.w3.org/1999/xlink" x="0px" y="0px"
	 viewBox="0 0 16 16" style="enable-background:new 0 0 16 16;" xml:space="preserve">
<path class="st0" d="M13.6,7.4L9.6,5L10,4.3C9.4,4.2,8.6,4.1,8,4.1c-0.6,0-1.3,0.1-2,0.2L6.4,5l-4,2.4L0,4.4l0.6-0.6
	c2-2,4.6-3.1,7.4-3.1s5.4,1.1,7.4,3.1L16,4.5L13.6,7.4z M10.9,4.7l2.4,1.5l1.3-1.6C12.9,2.8,10.5,1.8,8,1.8s-4.9,1-6.7,2.7l1.3,1.6
	l2.4-1.5L4.5,3.8l0.6-0.2c0.8-0.3,2-0.5,2.9-0.5c1,0,2.1,0.2,2.9,0.5l0.6,0.2L10.9,4.7z"/>
<path class="st0" d="M13.3,15.2H2.7c-0.5,0-0.9-0.2-1.2-0.6c-0.3-0.4-0.4-0.8-0.3-1.3l1.4-4.8c0.2-0.6,0.8-1.1,1.4-1.1h7.8
	c0.6,0,1.2,0.4,1.4,1.1l1.4,4.8c0.1,0.5,0,0.9-0.3,1.3S13.7,15.2,13.3,15.2z M4.1,8.5c-0.2,0-0.4,0.1-0.5,0.3l-1.4,4.8
	c0,0.1,0,0.3,0.1,0.4s0.2,0.2,0.4,0.2h10.5c0.1,0,0.3-0.1,0.4-0.2c0.1-0.1,0.1-0.3,0.1-0.4l-1.4-4.8c-0.1-0.2-0.2-0.3-0.4-0.3H4.1z"
	/>
<path class="st0" d="M11.1,13.3H4.9c-0.4,0-0.6-0.3-0.5-0.7l0.3-1C5,10.3,6.2,9.4,7.5,9.4h1c1.3,0,2.5,0.9,2.9,2.2l0.3,1
	C11.8,12.9,11.5,13.3,11.1,13.3z"/>
</svg>
