<?xml version="1.0" encoding="utf-8"?>
<!-- Generator: Adobe Illustrator 24.2.0, SVG Export Plug-In . SVG Version: 6.00 Build 0)  -->
<svg version="1.1" id="Layer_2" xmlns="http://www.w3.org/2000/svg" xmlns:xlink="http://www.w3.org/1999/xlink" x="0px" y="0px"
	 viewBox="0 0 16 16" style="enable-background:new 0 0 16 16;" xml:space="preserve">
<path class="st0" d="M12.5,16h-9C2.67,16,2,15.33,2,14.5v-13C2,0.67,2.67,0,3.5,0h9C13.33,0,14,0.67,14,1.5v13
	C14,15.33,13.33,16,12.5,16z M3.5,1C3.22,1,3,1.22,3,1.5v13C3,14.78,3.22,15,3.5,15h9c0.28,0,0.5-0.22,0.5-0.5v-13
	C13,1.22,12.78,1,12.5,1H3.5z"/>
<path class="st0" d="M11.5,6h-4C7.22,6,7,5.78,7,5.5S7.22,5,7.5,5h4C11.78,5,12,5.22,12,5.5S11.78,6,11.5,6z"/>
<path class="st0" d="M11.5,8h-4C7.22,8,7,7.78,7,7.5S7.22,7,7.5,7h4C11.78,7,12,7.22,12,7.5S11.78,8,11.5,8z"/>
<path class="st0" d="M11.5,10h-4C7.22,10,7,9.78,7,9.5S7.22,9,7.5,9h4C11.78,9,12,9.22,12,9.5S11.78,10,11.5,10z"/>
<path class="st0" d="M11.5,12h-4C7.22,12,7,11.78,7,11.5S7.22,11,7.5,11h4c0.28,0,0.5,0.22,0.5,0.5S11.78,12,11.5,12z"/>
<circle class="st0" cx="4.5" cy="5.5" r="0.5"/>
<circle class="st0" cx="4.5" cy="7.5" r="0.5"/>
<circle class="st0" cx="4.5" cy="9.5" r="0.5"/>
<circle class="st0" cx="4.5" cy="11.5" r="0.5"/>
<path class="st0" d="M11,3H5V0h6V3z M6,2h4V1H6V2z"/>
</svg>
