<?xml version="1.0" encoding="utf-8"?>
<!-- Generator: Adobe Illustrator 24.2.0, SVG Export Plug-In . SVG Version: 6.00 Build 0)  -->
<svg version="1.1" id="Layer_2" xmlns="http://www.w3.org/2000/svg" xmlns:xlink="http://www.w3.org/1999/xlink" x="0px" y="0px"
	 viewBox="0 0 16 16" style="enable-background:new 0 0 16 16;" xml:space="preserve">
<g>
	<polygon class="st0" points="13,6.5 12,6.5 12,3 8,3 8,6.5 7,6.5 7,2 13,2 	"/>
	<path class="st0" d="M4.5,12.5h-1v-10C3.5,1.67,2.83,1,2,1H1V0h1c1.38,0,2.5,1.12,2.5,2.5V12.5z"/>
	<rect x="5" y="13.48" class="st0" width="10" height="1.05"/>
	<path class="st0" d="M4,16c-1.1,0-2-0.9-2-2s0.9-2,2-2s2,0.9,2,2S5.1,16,4,16z M4,13c-0.55,0-1,0.45-1,1s0.45,1,1,1s1-0.45,1-1
		S4.55,13,4,13z"/>
	<path class="st0" d="M14,12H6V6h8V12z M7,11h6V7H7V11z"/>
	<rect x="9.5" y="7" class="st0" width="1" height="2"/>
</g>
</svg>
