<?xml version="1.0" encoding="utf-8"?>
<!-- Generator: Adobe Illustrator 24.2.1, SVG Export Plug-In . SVG Version: 6.00 Build 0)  -->
<svg version="1.1" xmlns="http://www.w3.org/2000/svg" xmlns:xlink="http://www.w3.org/1999/xlink" x="0px" y="0px"
	 viewBox="0 0 16 16" style="enable-background:new 0 0 16 16;" xml:space="preserve">
<g id="Layer_6">
	<g>
		<g>
			<g>
				<rect x="2.5" y="4" class="st3" width="1" height="8"/>
			</g>
			<g>
				<rect x="4.5" y="4" class="st3" width="1" height="6"/>
			</g>
			<g>
				<rect x="4.5" y="11" class="st3" width="1" height="1"/>
			</g>
			<g>
				<rect x="6.5" y="11" class="st3" width="1" height="1"/>
			</g>
			<g>
				<rect x="10.5" y="11" class="st3" width="1" height="1"/>
			</g>
			<g>
				<rect x="6.5" y="4" class="st3" width="1" height="6"/>
			</g>
			<g>
				<rect x="8.5" y="4" class="st3" width="1" height="8"/>
			</g>
			<g>
				<rect x="10.5" y="4" class="st3" width="1" height="6"/>
			</g>
			<g>
				<rect x="12.5" y="4" class="st3" width="1" height="8"/>
			</g>
		</g>
		<g>
			<g>
				<path class="st3" d="M4,14H1.5C0.67,14,0,13.33,0,12.5V11h1v1.5C1,12.78,1.22,13,1.5,13H4V14z"/>
			</g>
			<g>
				<path class="st3" d="M14.5,14H12v-1h2.5c0.28,0,0.5-0.22,0.5-0.5V11h1v1.5C16,13.33,15.33,14,14.5,14z"/>
			</g>
		</g>
		<g>
			<g>
				<path class="st3" d="M16,5h-1V3.5C15,3.22,14.78,3,14.5,3H12V2h2.5C15.33,2,16,2.67,16,3.5V5z"/>
			</g>
			<g>
				<path class="st3" d="M1,5H0V3.5C0,2.67,0.67,2,1.5,2H4v1H1.5C1.22,3,1,3.22,1,3.5V5z"/>
			</g>
		</g>
	</g>
</g>
<g id="Layer_3">
</g>
<g id="Layer_5" class="st26">
</g>
</svg>
