<?xml version="1.0" encoding="utf-8"?>
<!-- Generator: Adobe Illustrator 24.2.1, SVG Export Plug-In . SVG Version: 6.00 Build 0)  -->
<svg version="1.1" id="Layer_1" xmlns="http://www.w3.org/2000/svg" xmlns:xlink="http://www.w3.org/1999/xlink" x="0px" y="0px"
	 viewBox="0 0 16 16" style="enable-background:new 0 0 16 16;" xml:space="preserve">
<g id="Layer_6">
	<g>
		<g>
			<path class="st0" d="M13.56,8.57c-0.13,0-0.26-0.05-0.35-0.15l-2-2l0.71-0.71l1.65,1.65l1.65-1.65l0.71,0.71l-2,2
				C13.82,8.52,13.69,8.57,13.56,8.57z"/>
		</g>
		<g>
			<path class="st0" d="M13.59,8.03c-0.28,0-0.5-0.22-0.5-0.5V6.58c0-2.8-2.28-5.08-5.08-5.08c-2.61,0-4.78,1.96-5.05,4.55
				C2.93,6.33,2.69,6.52,2.41,6.5C2.13,6.47,1.93,6.22,1.96,5.95C2.28,2.84,4.88,0.5,8.01,0.5c3.35,0,6.08,2.73,6.08,6.08v0.95
				C14.09,7.81,13.87,8.03,13.59,8.03z"/>
		</g>
	</g>
	<g>
		<g>
			<path class="st0" d="M2.44,7.28c0.13,0,0.26,0.05,0.35,0.15l2,2l-0.71,0.71L2.44,8.49l-1.65,1.65L0.08,9.43l2-2
				C2.18,7.33,2.31,7.28,2.44,7.28z"/>
		</g>
		<g>
			<path class="st0" d="M8.02,15.5c-3.35,0-6.08-2.73-6.08-6.08V8.47c0-0.28,0.22-0.5,0.5-0.5s0.5,0.22,0.5,0.5v0.95
				c0,2.8,2.28,5.08,5.08,5.08c2.61,0,4.78-1.96,5.05-4.56c0.03-0.28,0.28-0.48,0.55-0.45c0.27,0.03,0.47,0.27,0.45,0.55
				C13.75,13.15,11.15,15.5,8.02,15.5z"/>
		</g>
	</g>
</g>
<g id="Layer_3">
</g>
<g id="Layer_5" class="st1">
</g>
</svg>
