<?xml version="1.0" encoding="utf-8"?>
<!-- Generator: Adobe Illustrator 24.2.0, SVG Export Plug-In . SVG Version: 6.00 Build 0)  -->
<svg version="1.1" xmlns="http://www.w3.org/2000/svg" xmlns:xlink="http://www.w3.org/1999/xlink" x="0px" y="0px"
	 viewBox="0 0 16 16" style="enable-background:new 0 0 16 16;" xml:space="preserve">
<g id="Layer_6">
</g>
<g id="Layer_3">
	<g>
		<path class="st3" d="M8,5.53c1.36,0,2.47,1.11,2.47,2.47S9.36,10.47,8,10.47S5.53,9.36,5.53,8S6.64,5.53,8,5.53 M8,4.5
			C6.07,4.5,4.5,6.07,4.5,8s1.57,3.5,3.5,3.5s3.5-1.57,3.5-3.5S9.93,4.5,8,4.5L8,4.5z"/>
		<path class="st3" d="M9.09,1.03l0.2,1.56l0.07,0.59l0.55,0.23c0.38,0.16,0.75,0.37,1.1,0.64l0.47,0.36l0.55-0.23l1.44-0.64
			l1.12,1.9l-1.28,0.97l-0.48,0.36l0.08,0.59c0.03,0.25,0.05,0.45,0.05,0.64c0,0.19-0.01,0.39-0.05,0.64l-0.08,0.59l0.48,0.36
			l1.27,0.93l-1.08,1.92l-1.48-0.62l-0.55-0.23l-0.47,0.36c-0.35,0.27-0.72,0.48-1.1,0.64l-0.55,0.23l-0.07,0.59l-0.17,1.56L6.91,15
			l-0.2-1.59l-0.07-0.59l-0.55-0.23c-0.38-0.16-0.75-0.37-1.1-0.64l-0.47-0.36l-0.55,0.23l-1.44,0.64l-1.12-1.9l1.28-0.97l0.48-0.36
			L3.07,8.64C3.04,8.39,3.03,8.19,3.03,8c0-0.19,0.01-0.39,0.05-0.64l0.08-0.59L2.68,6.41L1.4,5.48l1.08-1.92l1.48,0.62l0.55,0.23
			l0.47-0.36c0.35-0.27,0.72-0.48,1.1-0.64l0.55-0.23l0.07-0.59l0.17-1.56H9.09 M9.12,0H6.88c-0.5,0-0.93,0.38-0.99,0.88l-0.2,1.59
			c-0.48,0.2-0.92,0.46-1.33,0.77L2.89,2.61C2.76,2.56,2.63,2.53,2.5,2.53c-0.35,0-0.68,0.18-0.87,0.5L0.51,4.97
			C0.26,5.4,0.37,5.96,0.78,6.26l1.28,0.97C2.02,7.48,2,7.74,2,8s0.02,0.52,0.05,0.77L0.78,9.74c-0.4,0.3-0.51,0.86-0.26,1.3
			l1.12,1.94c0.18,0.32,0.52,0.5,0.87,0.5c0.13,0,0.26-0.03,0.39-0.08l1.48-0.62c0.41,0.31,0.85,0.57,1.33,0.77l0.2,1.59
			C5.95,15.62,6.38,16,6.88,16h2.23c0.5,0,0.93-0.38,0.99-0.88l0.2-1.59c0.48-0.2,0.92-0.46,1.33-0.77l1.48,0.62
			c0.13,0.05,0.26,0.08,0.39,0.08c0.35,0,0.68-0.18,0.87-0.5l1.12-1.94c0.25-0.44,0.14-0.99-0.26-1.3l-1.28-0.97
			C13.98,8.52,14,8.26,14,8s-0.02-0.52-0.05-0.77l1.28-0.97c0.4-0.3,0.51-0.86,0.26-1.3l-1.12-1.94c-0.18-0.32-0.52-0.5-0.87-0.5
			c-0.13,0-0.26,0.03-0.39,0.08l-1.48,0.62c-0.41-0.31-0.85-0.57-1.33-0.77l-0.2-1.59C10.05,0.38,9.62,0,9.12,0L9.12,0z"/>
	</g>
</g>
</svg>
