<?xml version="1.0" encoding="utf-8"?>
<!-- Generator: Adobe Illustrator 24.2.0, SVG Export Plug-In . SVG Version: 6.00 Build 0)  -->
<svg version="1.1" id="Layer_2" xmlns="http://www.w3.org/2000/svg" xmlns:xlink="http://www.w3.org/1999/xlink" x="0px" y="0px"
	 viewBox="0 0 16 16" style="enable-background:new 0 0 16 16;" xml:space="preserve">
<path class="st0" d="M10.5,9h-5C4.67,9,4,8.33,4,7.5V2h8v5.5C12,8.33,11.33,9,10.5,9z M5,3v4.5C5,7.78,5.22,8,5.5,8h5
	C10.78,8,11,7.78,11,7.5V3H5z"/>
<polygon class="st0" points="7,2 7,5 8,4 9,5 9,2 "/>
<rect x="6" y="6" class="st0" width="1" height="1"/>
<g>
	<path class="st0" d="M14,15H9c-0.83,0-1.5-0.67-1.5-1.5V8h8v5.5C15.5,14.33,14.83,15,14,15z M8.5,9v4.5C8.5,13.78,8.72,14,9,14h5
		c0.28,0,0.5-0.22,0.5-0.5V9H8.5z"/>
	<polygon class="st0" points="10.5,8 10.5,11 11.5,10 12.5,11 12.5,8 	"/>
	<rect x="9.5" y="12" class="st0" width="1" height="1"/>
</g>
<g>
	<path class="st0" d="M7,15H2c-0.83,0-1.5-0.67-1.5-1.5V8h8v5.5C8.5,14.33,7.83,15,7,15z M1.5,9v4.5C1.5,13.78,1.72,14,2,14h5
		c0.28,0,0.5-0.22,0.5-0.5V9H1.5z"/>
	<polygon class="st0" points="3.5,8 3.5,11 4.5,10 5.5,11 5.5,8 	"/>
	<rect x="2.5" y="12" class="st0" width="1" height="1"/>
</g>
</svg>
