<?xml version="1.0" encoding="utf-8"?>
<!-- Generator: Adobe Illustrator 24.2.1, SVG Export Plug-In . SVG Version: 6.00 Build 0)  -->
<svg version="1.1" id="Layer_1" xmlns="http://www.w3.org/2000/svg" xmlns:xlink="http://www.w3.org/1999/xlink" x="0px" y="0px"
	 viewBox="0 0 16 16" style="enable-background:new 0 0 16 16;" xml:space="preserve">
<g id="Layer_6">
	<g>
		<path class="st0" d="M10.67,16H5.33c-0.72,0-1.35-0.53-1.47-1.24L1.9,4h12.2l-1.96,10.77C12,15.48,11.39,16,10.67,16z M3.1,5
			l1.74,9.59C4.88,14.83,5.09,15,5.33,15h5.34c0.24,0,0.44-0.17,0.49-0.42L12.9,5H3.1z"/>
	</g>
	<g>
		<rect x="1" y="2" class="st0" width="14" height="1"/>
	</g>
	<g>
		<path class="st0" d="M11,3H5V1.5C5,0.67,5.67,0,6.5,0h3C10.33,0,11,0.67,11,1.5V3z M6,2h4V1.5C10,1.22,9.78,1,9.5,1h-3
			C6.22,1,6,1.22,6,1.5V2z"/>
	</g>
	<g>
		<g>
			<rect x="5.5" y="6.5" class="st0" width="1" height="5"/>
		</g>
		<g>
			<rect x="9.5" y="6.5" class="st0" width="1" height="5"/>
		</g>
		<g>
			<rect x="7.5" y="6.5" class="st0" width="1" height="5"/>
		</g>
	</g>
</g>
<g id="Layer_3">
</g>
<g id="Layer_5" class="st1">
</g>
</svg>
