<?xml version="1.0" encoding="utf-8"?>
<!-- Generator: Adobe Illustrator 24.2.1, SVG Export Plug-In . SVG Version: 6.00 Build 0)  -->
<svg version="1.1" id="Layer_1" xmlns="http://www.w3.org/2000/svg" xmlns:xlink="http://www.w3.org/1999/xlink" x="0px" y="0px"
	 viewBox="0 0 16 16" style="enable-background:new 0 0 16 16;" xml:space="preserve">
<g id="Layer_6">
</g>
<g id="Layer_3">
	<g>
		<g>
			<path class="st0" d="M3.94,13.91c-1.19,0-2.15-0.96-2.15-2.15s0.96-2.15,2.15-2.15s2.15,0.96,2.15,2.15S5.13,13.91,3.94,13.91z
				 M3.94,10.61c-0.63,0-1.15,0.52-1.15,1.15c0,0.63,0.52,1.15,1.15,1.15s1.15-0.52,1.15-1.15C5.09,11.13,4.57,10.61,3.94,10.61z"/>
		</g>
		<g>
			<g>
				<path class="st0" d="M14.74,12.26h-1.61c-0.28,0-0.5-0.22-0.5-0.5s0.22-0.5,0.5-0.5h1.61c0.12,0,0.22-0.1,0.22-0.22V9.35
					c0-0.47-0.11-0.81-0.33-1.02c-0.27-0.26-0.65-0.24-0.65-0.24c-0.15,0.01-0.32-0.06-0.42-0.18l-1.77-2.18
					c-0.28-0.28-0.7-0.46-1.14-0.46L9.52,5.31v5.96h0.31c0.28,0,0.5,0.22,0.5,0.5s-0.22,0.5-0.5,0.5H6.12c-0.28,0-0.5-0.22-0.5-0.5
					s0.22-0.5,0.5-0.5h2.4V4.82c0-0.27,0.21-0.49,0.48-0.5l1.63-0.05c0,0,0,0,0,0c0.72,0,1.39,0.28,1.9,0.79L14.2,7.1
					c0.28,0.03,0.73,0.14,1.11,0.49c0.43,0.4,0.65,0.99,0.65,1.76v1.69C15.96,11.71,15.41,12.26,14.74,12.26z"/>
			</g>
			<g>
				<path class="st0" d="M11.48,13.91c-1.19,0-2.15-0.96-2.15-2.15s0.96-2.15,2.15-2.15s2.15,0.96,2.15,2.15
					S12.67,13.91,11.48,13.91z M11.48,10.61c-0.63,0-1.15,0.52-1.15,1.15c0,0.63,0.52,1.15,1.15,1.15c0.63,0,1.15-0.52,1.15-1.15
					C12.63,11.13,12.11,10.61,11.48,10.61z"/>
			</g>
			<g>
				<path class="st0" d="M13.95,8.09H0.5C0.22,8.09,0,7.87,0,7.59s0.22-0.5,0.5-0.5h13.45c0.28,0,0.5,0.22,0.5,0.5
					S14.23,8.09,13.95,8.09z"/>
			</g>
			<g>
				<path class="st0" d="M9.02,12.09H5.59c-0.28,0-0.5-0.22-0.5-0.5s0.22-0.5,0.5-0.5h2.93v-8H1v8h1.29c0.28,0,0.5,0.22,0.5,0.5
					s-0.22,0.5-0.5,0.5H0.5c-0.28,0-0.5-0.22-0.5-0.5v-9c0-0.28,0.22-0.5,0.5-0.5h8.52c0.28,0,0.5,0.22,0.5,0.5v9
					C9.52,11.87,9.3,12.09,9.02,12.09z"/>
			</g>
		</g>
	</g>
</g>
<g id="Layer_5" class="st1">
</g>
</svg>
